<svg width="393" height="852" viewBox="0 0 393 852" fill="none" xmlns="http://www.w3.org/2000/svg">
<g clip-path="url(#clip0_15_2)">
<rect width="393" height="852" fill="white"/>
<path fill-rule="evenodd" clip-rule="evenodd" d="M0 767.828L44.22 759.769C87.78 751.71 176.22 735.593 264 759.769C351.78 783.945 440.22 848.415 528 896.768C615.78 945.12 704.22 977.355 747.78 993.473L792 1009.59V1203H747.78C704.22 1203 615.78 1203 528 1203C440.22 1203 351.78 1203 264 1203C176.22 1203 87.78 1203 44.22 1203H0L0 767.828Z" fill="#25F79E" fill-opacity="0.63"/>
<path fill-rule="evenodd" clip-rule="evenodd" d="M492 361.172L464.027 369.231C436.472 377.29 380.527 393.407 325 369.231C269.472 345.055 213.527 280.585 158 232.232C102.472 183.88 46.5275 151.645 18.9725 135.527L-9 119.41L-8.99998 -74L18.9725 -74C46.5275 -74 102.473 -74 158 -74C213.528 -74 269.473 -74 325 -74C380.528 -74 436.473 -74 464.028 -74L492 -74L492 361.172Z" fill="#25F79E" fill-opacity="0.63"/>
</g>
<defs>
<clipPath id="clip0_15_2">
<rect width="393" height="852" fill="white"/>
</clipPath>
</defs>
</svg>
